<svg xmlns="http://www.w3.org/2000/svg" width="25.662" height="25.662" viewBox="0 0 25.662 25.662">
  <path id="Icon_awesome-facebook-square" data-name="Icon awesome-facebook-square" d="M22.912,2.25H2.749A2.749,2.749,0,0,0,0,5V25.162a2.749,2.749,0,0,0,2.749,2.749h7.862V19.187H7V15.081h3.609v-3.13c0-3.56,2.119-5.526,5.365-5.526a21.862,21.862,0,0,1,3.18.277V10.2H17.366a2.053,2.053,0,0,0-2.315,2.218v2.666h3.94l-.63,4.106H15.05v8.724h7.862a2.749,2.749,0,0,0,2.749-2.749V5A2.749,2.749,0,0,0,22.912,2.25Z" transform="translate(0 -2.25)"/>
</svg>
