<svg xmlns="http://www.w3.org/2000/svg" width="29.327" height="23.819" viewBox="0 0 29.327 23.819">
  <path id="Icon_awesome-twitter" data-name="Icon awesome-twitter" d="M26.313,9.317c.019.261.019.521.019.782,0,7.946-6.048,17.1-17.1,17.1A16.986,16.986,0,0,1,0,24.5a12.434,12.434,0,0,0,1.451.074,12.038,12.038,0,0,0,7.462-2.568,6.021,6.021,0,0,1-5.62-4.168,7.58,7.58,0,0,0,1.135.093,6.357,6.357,0,0,0,1.582-.2,6.011,6.011,0,0,1-4.82-5.9v-.074a6.053,6.053,0,0,0,2.717.763A6.02,6.02,0,0,1,2.047,4.479a17.085,17.085,0,0,0,12.393,6.29,6.785,6.785,0,0,1-.149-1.377,6.016,6.016,0,0,1,10.4-4.113,11.834,11.834,0,0,0,3.815-1.451A5.994,5.994,0,0,1,25.866,7.14a12.05,12.05,0,0,0,3.461-.93,12.921,12.921,0,0,1-3.015,3.108Z" transform="translate(0 -3.381)"/>
</svg>
